<mxfile host="app.diagrams.net" modified="2020-08-03T19:11:49.983Z" agent="5.0 (Windows NT 10.0; Win64; x64) AppleWebKit/537.36 (KHTML, like Gecko) Chrome/84.0.4147.105 Safari/537.36" etag="mKg85WRg5qAVrRZXh1MO" version="13.5.9" type="github">
  <diagram id="R2lEEEUBdFMjLlhIrx00" name="Page-1">
    <mxGraphModel dx="2272" dy="832" grid="1" gridSize="10" guides="1" tooltips="1" connect="1" arrows="1" fold="1" page="1" pageScale="1" pageWidth="850" pageHeight="1100" math="0" shadow="0" extFonts="Permanent Marker^https://fonts.googleapis.com/css?family=Permanent+Marker">
      <root>
        <mxCell id="0" />
        <mxCell id="1" parent="0" />
        <mxCell id="hUfFqboqBr61ed0U_pwo-313" value="" style="edgeStyle=elbowEdgeStyle;fontSize=12;html=1;endArrow=ERzeroToMany;startArrow=ERmandOne;entryX=0;entryY=0.5;entryDx=0;entryDy=0;" edge="1" parent="1" source="hUfFqboqBr61ed0U_pwo-174" target="hUfFqboqBr61ed0U_pwo-225">
          <mxGeometry width="100" height="100" relative="1" as="geometry">
            <mxPoint x="25" y="400" as="sourcePoint" />
            <mxPoint x="125" y="300" as="targetPoint" />
          </mxGeometry>
        </mxCell>
        <mxCell id="hUfFqboqBr61ed0U_pwo-314" value="" style="edgeStyle=elbowEdgeStyle;fontSize=12;html=1;endArrow=ERzeroToMany;startArrow=ERmandOne;entryX=0;entryY=0.5;entryDx=0;entryDy=0;" edge="1" parent="1" target="hUfFqboqBr61ed0U_pwo-273">
          <mxGeometry width="100" height="100" relative="1" as="geometry">
            <mxPoint x="36" y="305" as="sourcePoint" />
            <mxPoint x="145" y="360" as="targetPoint" />
          </mxGeometry>
        </mxCell>
        <mxCell id="hUfFqboqBr61ed0U_pwo-315" value="" style="edgeStyle=entityRelationEdgeStyle;fontSize=12;html=1;endArrow=ERzeroToMany;startArrow=ERmandOne;exitX=1;exitY=0.5;exitDx=0;exitDy=0;" edge="1" parent="1" source="hUfFqboqBr61ed0U_pwo-225" target="hUfFqboqBr61ed0U_pwo-266">
          <mxGeometry width="100" height="100" relative="1" as="geometry">
            <mxPoint x="335" y="480" as="sourcePoint" />
            <mxPoint x="435" y="380" as="targetPoint" />
          </mxGeometry>
        </mxCell>
        <mxCell id="hUfFqboqBr61ed0U_pwo-317" value="" style="edgeStyle=elbowEdgeStyle;fontSize=12;html=1;endArrow=ERzeroToMany;startArrow=ERmandOne;exitX=1;exitY=0.5;exitDx=0;exitDy=0;entryX=0;entryY=0.5;entryDx=0;entryDy=0;" edge="1" parent="1" source="hUfFqboqBr61ed0U_pwo-225" target="hUfFqboqBr61ed0U_pwo-302">
          <mxGeometry width="100" height="100" relative="1" as="geometry">
            <mxPoint x="335" y="480" as="sourcePoint" />
            <mxPoint x="435" y="380" as="targetPoint" />
          </mxGeometry>
        </mxCell>
        <mxCell id="hUfFqboqBr61ed0U_pwo-318" value="" style="edgeStyle=elbowEdgeStyle;fontSize=12;html=1;endArrow=ERzeroToMany;startArrow=ERmandOne;exitX=1;exitY=0.5;exitDx=0;exitDy=0;entryX=0;entryY=0.5;entryDx=0;entryDy=0;" edge="1" parent="1" source="hUfFqboqBr61ed0U_pwo-254" target="hUfFqboqBr61ed0U_pwo-302">
          <mxGeometry width="100" height="100" relative="1" as="geometry">
            <mxPoint x="355" y="220" as="sourcePoint" />
            <mxPoint x="455" y="120" as="targetPoint" />
          </mxGeometry>
        </mxCell>
        <mxCell id="hUfFqboqBr61ed0U_pwo-173" value="profile" style="shape=table;startSize=30;container=1;collapsible=1;childLayout=tableLayout;fixedRows=1;rowLines=0;fontStyle=1;align=center;resizeLast=1;" vertex="1" parent="1">
          <mxGeometry x="-145" y="260" width="180" height="280" as="geometry" />
        </mxCell>
        <mxCell id="hUfFqboqBr61ed0U_pwo-174" value="" style="shape=partialRectangle;collapsible=0;dropTarget=0;pointerEvents=0;fillColor=none;top=0;left=0;bottom=1;right=0;points=[[0,0.5],[1,0.5]];portConstraint=eastwest;" vertex="1" parent="hUfFqboqBr61ed0U_pwo-173">
          <mxGeometry y="30" width="180" height="30" as="geometry" />
        </mxCell>
        <mxCell id="hUfFqboqBr61ed0U_pwo-175" value="PK" style="shape=partialRectangle;connectable=0;fillColor=none;top=0;left=0;bottom=0;right=0;fontStyle=1;overflow=hidden;" vertex="1" parent="hUfFqboqBr61ed0U_pwo-174">
          <mxGeometry width="30" height="30" as="geometry" />
        </mxCell>
        <mxCell id="hUfFqboqBr61ed0U_pwo-176" value="id" style="shape=partialRectangle;connectable=0;fillColor=none;top=0;left=0;bottom=0;right=0;align=left;spacingLeft=6;fontStyle=5;overflow=hidden;" vertex="1" parent="hUfFqboqBr61ed0U_pwo-174">
          <mxGeometry x="30" width="150" height="30" as="geometry" />
        </mxCell>
        <mxCell id="hUfFqboqBr61ed0U_pwo-177" value="" style="shape=partialRectangle;collapsible=0;dropTarget=0;pointerEvents=0;fillColor=none;top=0;left=0;bottom=0;right=0;points=[[0,0.5],[1,0.5]];portConstraint=eastwest;" vertex="1" parent="hUfFqboqBr61ed0U_pwo-173">
          <mxGeometry y="60" width="180" height="30" as="geometry" />
        </mxCell>
        <mxCell id="hUfFqboqBr61ed0U_pwo-178" value="" style="shape=partialRectangle;connectable=0;fillColor=none;top=0;left=0;bottom=0;right=0;editable=1;overflow=hidden;" vertex="1" parent="hUfFqboqBr61ed0U_pwo-177">
          <mxGeometry width="30" height="30" as="geometry" />
        </mxCell>
        <mxCell id="hUfFqboqBr61ed0U_pwo-179" value="username" style="shape=partialRectangle;connectable=0;fillColor=none;top=0;left=0;bottom=0;right=0;align=left;spacingLeft=6;overflow=hidden;" vertex="1" parent="hUfFqboqBr61ed0U_pwo-177">
          <mxGeometry x="30" width="150" height="30" as="geometry" />
        </mxCell>
        <mxCell id="hUfFqboqBr61ed0U_pwo-180" value="" style="shape=partialRectangle;collapsible=0;dropTarget=0;pointerEvents=0;fillColor=none;top=0;left=0;bottom=0;right=0;points=[[0,0.5],[1,0.5]];portConstraint=eastwest;" vertex="1" parent="hUfFqboqBr61ed0U_pwo-173">
          <mxGeometry y="90" width="180" height="30" as="geometry" />
        </mxCell>
        <mxCell id="hUfFqboqBr61ed0U_pwo-181" value="" style="shape=partialRectangle;connectable=0;fillColor=none;top=0;left=0;bottom=0;right=0;editable=1;overflow=hidden;" vertex="1" parent="hUfFqboqBr61ed0U_pwo-180">
          <mxGeometry width="30" height="30" as="geometry" />
        </mxCell>
        <mxCell id="hUfFqboqBr61ed0U_pwo-182" value="nama_lengkap" style="shape=partialRectangle;connectable=0;fillColor=none;top=0;left=0;bottom=0;right=0;align=left;spacingLeft=6;overflow=hidden;" vertex="1" parent="hUfFqboqBr61ed0U_pwo-180">
          <mxGeometry x="30" width="150" height="30" as="geometry" />
        </mxCell>
        <mxCell id="hUfFqboqBr61ed0U_pwo-212" value="" style="shape=partialRectangle;collapsible=0;dropTarget=0;pointerEvents=0;fillColor=none;top=0;left=0;bottom=0;right=0;points=[[0,0.5],[1,0.5]];portConstraint=eastwest;" vertex="1" parent="hUfFqboqBr61ed0U_pwo-173">
          <mxGeometry y="120" width="180" height="30" as="geometry" />
        </mxCell>
        <mxCell id="hUfFqboqBr61ed0U_pwo-213" value="" style="shape=partialRectangle;connectable=0;fillColor=none;top=0;left=0;bottom=0;right=0;editable=1;overflow=hidden;" vertex="1" parent="hUfFqboqBr61ed0U_pwo-212">
          <mxGeometry width="30" height="30" as="geometry" />
        </mxCell>
        <mxCell id="hUfFqboqBr61ed0U_pwo-214" value="password" style="shape=partialRectangle;connectable=0;fillColor=none;top=0;left=0;bottom=0;right=0;align=left;spacingLeft=6;overflow=hidden;" vertex="1" parent="hUfFqboqBr61ed0U_pwo-212">
          <mxGeometry x="30" width="150" height="30" as="geometry" />
        </mxCell>
        <mxCell id="hUfFqboqBr61ed0U_pwo-215" value="" style="shape=partialRectangle;collapsible=0;dropTarget=0;pointerEvents=0;fillColor=none;top=0;left=0;bottom=0;right=0;points=[[0,0.5],[1,0.5]];portConstraint=eastwest;" vertex="1" parent="hUfFqboqBr61ed0U_pwo-173">
          <mxGeometry y="150" width="180" height="30" as="geometry" />
        </mxCell>
        <mxCell id="hUfFqboqBr61ed0U_pwo-216" value="" style="shape=partialRectangle;connectable=0;fillColor=none;top=0;left=0;bottom=0;right=0;editable=1;overflow=hidden;" vertex="1" parent="hUfFqboqBr61ed0U_pwo-215">
          <mxGeometry width="30" height="30" as="geometry" />
        </mxCell>
        <mxCell id="hUfFqboqBr61ed0U_pwo-217" value="email" style="shape=partialRectangle;connectable=0;fillColor=none;top=0;left=0;bottom=0;right=0;align=left;spacingLeft=6;overflow=hidden;" vertex="1" parent="hUfFqboqBr61ed0U_pwo-215">
          <mxGeometry x="30" width="150" height="30" as="geometry" />
        </mxCell>
        <mxCell id="hUfFqboqBr61ed0U_pwo-218" value="" style="shape=partialRectangle;collapsible=0;dropTarget=0;pointerEvents=0;fillColor=none;top=0;left=0;bottom=0;right=0;points=[[0,0.5],[1,0.5]];portConstraint=eastwest;" vertex="1" parent="hUfFqboqBr61ed0U_pwo-173">
          <mxGeometry y="180" width="180" height="30" as="geometry" />
        </mxCell>
        <mxCell id="hUfFqboqBr61ed0U_pwo-219" value="" style="shape=partialRectangle;connectable=0;fillColor=none;top=0;left=0;bottom=0;right=0;editable=1;overflow=hidden;" vertex="1" parent="hUfFqboqBr61ed0U_pwo-218">
          <mxGeometry width="30" height="30" as="geometry" />
        </mxCell>
        <mxCell id="hUfFqboqBr61ed0U_pwo-220" value="alamat" style="shape=partialRectangle;connectable=0;fillColor=none;top=0;left=0;bottom=0;right=0;align=left;spacingLeft=6;overflow=hidden;" vertex="1" parent="hUfFqboqBr61ed0U_pwo-218">
          <mxGeometry x="30" width="150" height="30" as="geometry" />
        </mxCell>
        <mxCell id="hUfFqboqBr61ed0U_pwo-221" value="" style="shape=partialRectangle;collapsible=0;dropTarget=0;pointerEvents=0;fillColor=none;top=0;left=0;bottom=0;right=0;points=[[0,0.5],[1,0.5]];portConstraint=eastwest;" vertex="1" parent="hUfFqboqBr61ed0U_pwo-173">
          <mxGeometry y="210" width="180" height="30" as="geometry" />
        </mxCell>
        <mxCell id="hUfFqboqBr61ed0U_pwo-222" value="" style="shape=partialRectangle;connectable=0;fillColor=none;top=0;left=0;bottom=0;right=0;editable=1;overflow=hidden;" vertex="1" parent="hUfFqboqBr61ed0U_pwo-221">
          <mxGeometry width="30" height="30" as="geometry" />
        </mxCell>
        <mxCell id="hUfFqboqBr61ed0U_pwo-223" value="phone" style="shape=partialRectangle;connectable=0;fillColor=none;top=0;left=0;bottom=0;right=0;align=left;spacingLeft=6;overflow=hidden;" vertex="1" parent="hUfFqboqBr61ed0U_pwo-221">
          <mxGeometry x="30" width="150" height="30" as="geometry" />
        </mxCell>
        <mxCell id="hUfFqboqBr61ed0U_pwo-183" value="" style="shape=partialRectangle;collapsible=0;dropTarget=0;pointerEvents=0;fillColor=none;top=0;left=0;bottom=0;right=0;points=[[0,0.5],[1,0.5]];portConstraint=eastwest;" vertex="1" parent="hUfFqboqBr61ed0U_pwo-173">
          <mxGeometry y="240" width="180" height="30" as="geometry" />
        </mxCell>
        <mxCell id="hUfFqboqBr61ed0U_pwo-184" value="" style="shape=partialRectangle;connectable=0;fillColor=none;top=0;left=0;bottom=0;right=0;editable=1;overflow=hidden;" vertex="1" parent="hUfFqboqBr61ed0U_pwo-183">
          <mxGeometry width="30" height="30" as="geometry" />
        </mxCell>
        <mxCell id="hUfFqboqBr61ed0U_pwo-185" value="photo" style="shape=partialRectangle;connectable=0;fillColor=none;top=0;left=0;bottom=0;right=0;align=left;spacingLeft=6;overflow=hidden;" vertex="1" parent="hUfFqboqBr61ed0U_pwo-183">
          <mxGeometry x="30" width="150" height="30" as="geometry" />
        </mxCell>
        <mxCell id="hUfFqboqBr61ed0U_pwo-253" value="jawaban" style="shape=table;startSize=30;container=1;collapsible=1;childLayout=tableLayout;fixedRows=1;rowLines=0;fontStyle=1;align=center;resizeLast=1;" vertex="1" parent="1">
          <mxGeometry x="115" y="30" width="180" height="310" as="geometry" />
        </mxCell>
        <mxCell id="hUfFqboqBr61ed0U_pwo-254" value="" style="shape=partialRectangle;collapsible=0;dropTarget=0;pointerEvents=0;fillColor=none;top=0;left=0;bottom=1;right=0;points=[[0,0.5],[1,0.5]];portConstraint=eastwest;" vertex="1" parent="hUfFqboqBr61ed0U_pwo-253">
          <mxGeometry y="30" width="180" height="30" as="geometry" />
        </mxCell>
        <mxCell id="hUfFqboqBr61ed0U_pwo-255" value="PK" style="shape=partialRectangle;connectable=0;fillColor=none;top=0;left=0;bottom=0;right=0;fontStyle=1;overflow=hidden;" vertex="1" parent="hUfFqboqBr61ed0U_pwo-254">
          <mxGeometry width="30" height="30" as="geometry" />
        </mxCell>
        <mxCell id="hUfFqboqBr61ed0U_pwo-256" value="id" style="shape=partialRectangle;connectable=0;fillColor=none;top=0;left=0;bottom=0;right=0;align=left;spacingLeft=6;fontStyle=5;overflow=hidden;" vertex="1" parent="hUfFqboqBr61ed0U_pwo-254">
          <mxGeometry x="30" width="150" height="30" as="geometry" />
        </mxCell>
        <mxCell id="hUfFqboqBr61ed0U_pwo-273" value="" style="shape=partialRectangle;collapsible=0;dropTarget=0;pointerEvents=0;fillColor=none;top=0;left=0;bottom=0;right=0;points=[[0,0.5],[1,0.5]];portConstraint=eastwest;" vertex="1" parent="hUfFqboqBr61ed0U_pwo-253">
          <mxGeometry y="60" width="180" height="30" as="geometry" />
        </mxCell>
        <mxCell id="hUfFqboqBr61ed0U_pwo-274" value="FK1" style="shape=partialRectangle;connectable=0;fillColor=none;top=0;left=0;bottom=0;right=0;fontStyle=0;overflow=hidden;" vertex="1" parent="hUfFqboqBr61ed0U_pwo-273">
          <mxGeometry width="30" height="30" as="geometry" />
        </mxCell>
        <mxCell id="hUfFqboqBr61ed0U_pwo-275" value="id_user" style="shape=partialRectangle;connectable=0;fillColor=none;top=0;left=0;bottom=0;right=0;align=left;spacingLeft=6;fontStyle=0;overflow=hidden;" vertex="1" parent="hUfFqboqBr61ed0U_pwo-273">
          <mxGeometry x="30" width="150" height="30" as="geometry" />
        </mxCell>
        <mxCell id="hUfFqboqBr61ed0U_pwo-266" value="" style="shape=partialRectangle;collapsible=0;dropTarget=0;pointerEvents=0;fillColor=none;top=0;left=0;bottom=0;right=0;points=[[0,0.5],[1,0.5]];portConstraint=eastwest;" vertex="1" parent="hUfFqboqBr61ed0U_pwo-253">
          <mxGeometry y="90" width="180" height="30" as="geometry" />
        </mxCell>
        <mxCell id="hUfFqboqBr61ed0U_pwo-267" value="FK2" style="shape=partialRectangle;connectable=0;fillColor=none;top=0;left=0;bottom=0;right=0;fontStyle=0;overflow=hidden;" vertex="1" parent="hUfFqboqBr61ed0U_pwo-266">
          <mxGeometry width="30" height="30" as="geometry" />
        </mxCell>
        <mxCell id="hUfFqboqBr61ed0U_pwo-268" value="id_pertanyaan" style="shape=partialRectangle;connectable=0;fillColor=none;top=0;left=0;bottom=0;right=0;align=left;spacingLeft=6;fontStyle=0;overflow=hidden;" vertex="1" parent="hUfFqboqBr61ed0U_pwo-266">
          <mxGeometry x="30" width="150" height="30" as="geometry" />
        </mxCell>
        <mxCell id="hUfFqboqBr61ed0U_pwo-257" value="" style="shape=partialRectangle;collapsible=0;dropTarget=0;pointerEvents=0;fillColor=none;top=0;left=0;bottom=0;right=0;points=[[0,0.5],[1,0.5]];portConstraint=eastwest;" vertex="1" parent="hUfFqboqBr61ed0U_pwo-253">
          <mxGeometry y="120" width="180" height="30" as="geometry" />
        </mxCell>
        <mxCell id="hUfFqboqBr61ed0U_pwo-258" value="" style="shape=partialRectangle;connectable=0;fillColor=none;top=0;left=0;bottom=0;right=0;editable=1;overflow=hidden;" vertex="1" parent="hUfFqboqBr61ed0U_pwo-257">
          <mxGeometry width="30" height="30" as="geometry" />
        </mxCell>
        <mxCell id="hUfFqboqBr61ed0U_pwo-259" value="isi" style="shape=partialRectangle;connectable=0;fillColor=none;top=0;left=0;bottom=0;right=0;align=left;spacingLeft=6;overflow=hidden;" vertex="1" parent="hUfFqboqBr61ed0U_pwo-257">
          <mxGeometry x="30" width="150" height="30" as="geometry" />
        </mxCell>
        <mxCell id="hUfFqboqBr61ed0U_pwo-260" value="" style="shape=partialRectangle;collapsible=0;dropTarget=0;pointerEvents=0;fillColor=none;top=0;left=0;bottom=0;right=0;points=[[0,0.5],[1,0.5]];portConstraint=eastwest;" vertex="1" parent="hUfFqboqBr61ed0U_pwo-253">
          <mxGeometry y="150" width="180" height="30" as="geometry" />
        </mxCell>
        <mxCell id="hUfFqboqBr61ed0U_pwo-261" value="" style="shape=partialRectangle;connectable=0;fillColor=none;top=0;left=0;bottom=0;right=0;editable=1;overflow=hidden;" vertex="1" parent="hUfFqboqBr61ed0U_pwo-260">
          <mxGeometry width="30" height="30" as="geometry" />
        </mxCell>
        <mxCell id="hUfFqboqBr61ed0U_pwo-262" value="tanggal_dibuat" style="shape=partialRectangle;connectable=0;fillColor=none;top=0;left=0;bottom=0;right=0;align=left;spacingLeft=6;overflow=hidden;" vertex="1" parent="hUfFqboqBr61ed0U_pwo-260">
          <mxGeometry x="30" width="150" height="30" as="geometry" />
        </mxCell>
        <mxCell id="hUfFqboqBr61ed0U_pwo-276" value="" style="shape=partialRectangle;collapsible=0;dropTarget=0;pointerEvents=0;fillColor=none;top=0;left=0;bottom=0;right=0;points=[[0,0.5],[1,0.5]];portConstraint=eastwest;" vertex="1" parent="hUfFqboqBr61ed0U_pwo-253">
          <mxGeometry y="180" width="180" height="30" as="geometry" />
        </mxCell>
        <mxCell id="hUfFqboqBr61ed0U_pwo-277" value="" style="shape=partialRectangle;connectable=0;fillColor=none;top=0;left=0;bottom=0;right=0;editable=1;overflow=hidden;" vertex="1" parent="hUfFqboqBr61ed0U_pwo-276">
          <mxGeometry width="30" height="30" as="geometry" />
        </mxCell>
        <mxCell id="hUfFqboqBr61ed0U_pwo-278" value="tanggal_diperbarui" style="shape=partialRectangle;connectable=0;fillColor=none;top=0;left=0;bottom=0;right=0;align=left;spacingLeft=6;overflow=hidden;" vertex="1" parent="hUfFqboqBr61ed0U_pwo-276">
          <mxGeometry x="30" width="150" height="30" as="geometry" />
        </mxCell>
        <mxCell id="hUfFqboqBr61ed0U_pwo-283" value="" style="shape=partialRectangle;collapsible=0;dropTarget=0;pointerEvents=0;fillColor=none;top=0;left=0;bottom=0;right=0;points=[[0,0.5],[1,0.5]];portConstraint=eastwest;" vertex="1" parent="hUfFqboqBr61ed0U_pwo-253">
          <mxGeometry y="210" width="180" height="30" as="geometry" />
        </mxCell>
        <mxCell id="hUfFqboqBr61ed0U_pwo-284" value="" style="shape=partialRectangle;connectable=0;fillColor=none;top=0;left=0;bottom=0;right=0;editable=1;overflow=hidden;" vertex="1" parent="hUfFqboqBr61ed0U_pwo-283">
          <mxGeometry width="30" height="30" as="geometry" />
        </mxCell>
        <mxCell id="hUfFqboqBr61ed0U_pwo-285" value="akurat" style="shape=partialRectangle;connectable=0;fillColor=none;top=0;left=0;bottom=0;right=0;align=left;spacingLeft=6;overflow=hidden;" vertex="1" parent="hUfFqboqBr61ed0U_pwo-283">
          <mxGeometry x="30" width="150" height="30" as="geometry" />
        </mxCell>
        <mxCell id="hUfFqboqBr61ed0U_pwo-286" value="" style="shape=partialRectangle;collapsible=0;dropTarget=0;pointerEvents=0;fillColor=none;top=0;left=0;bottom=0;right=0;points=[[0,0.5],[1,0.5]];portConstraint=eastwest;" vertex="1" parent="hUfFqboqBr61ed0U_pwo-253">
          <mxGeometry y="240" width="180" height="30" as="geometry" />
        </mxCell>
        <mxCell id="hUfFqboqBr61ed0U_pwo-287" value="" style="shape=partialRectangle;connectable=0;fillColor=none;top=0;left=0;bottom=0;right=0;editable=1;overflow=hidden;" vertex="1" parent="hUfFqboqBr61ed0U_pwo-286">
          <mxGeometry width="30" height="30" as="geometry" />
        </mxCell>
        <mxCell id="hUfFqboqBr61ed0U_pwo-288" value="like" style="shape=partialRectangle;connectable=0;fillColor=none;top=0;left=0;bottom=0;right=0;align=left;spacingLeft=6;overflow=hidden;" vertex="1" parent="hUfFqboqBr61ed0U_pwo-286">
          <mxGeometry x="30" width="150" height="30" as="geometry" />
        </mxCell>
        <mxCell id="hUfFqboqBr61ed0U_pwo-263" value="" style="shape=partialRectangle;collapsible=0;dropTarget=0;pointerEvents=0;fillColor=none;top=0;left=0;bottom=0;right=0;points=[[0,0.5],[1,0.5]];portConstraint=eastwest;" vertex="1" parent="hUfFqboqBr61ed0U_pwo-253">
          <mxGeometry y="270" width="180" height="30" as="geometry" />
        </mxCell>
        <mxCell id="hUfFqboqBr61ed0U_pwo-264" value="" style="shape=partialRectangle;connectable=0;fillColor=none;top=0;left=0;bottom=0;right=0;editable=1;overflow=hidden;" vertex="1" parent="hUfFqboqBr61ed0U_pwo-263">
          <mxGeometry width="30" height="30" as="geometry" />
        </mxCell>
        <mxCell id="hUfFqboqBr61ed0U_pwo-265" value="dislike" style="shape=partialRectangle;connectable=0;fillColor=none;top=0;left=0;bottom=0;right=0;align=left;spacingLeft=6;overflow=hidden;" vertex="1" parent="hUfFqboqBr61ed0U_pwo-263">
          <mxGeometry x="30" width="150" height="30" as="geometry" />
        </mxCell>
        <mxCell id="hUfFqboqBr61ed0U_pwo-289" value="komentar" style="shape=table;startSize=30;container=1;collapsible=1;childLayout=tableLayout;fixedRows=1;rowLines=0;fontStyle=1;align=center;resizeLast=1;" vertex="1" parent="1">
          <mxGeometry x="435" y="290" width="180" height="240" as="geometry" />
        </mxCell>
        <mxCell id="hUfFqboqBr61ed0U_pwo-290" value="" style="shape=partialRectangle;collapsible=0;dropTarget=0;pointerEvents=0;fillColor=none;top=0;left=0;bottom=1;right=0;points=[[0,0.5],[1,0.5]];portConstraint=eastwest;" vertex="1" parent="hUfFqboqBr61ed0U_pwo-289">
          <mxGeometry y="30" width="180" height="30" as="geometry" />
        </mxCell>
        <mxCell id="hUfFqboqBr61ed0U_pwo-291" value="PK" style="shape=partialRectangle;connectable=0;fillColor=none;top=0;left=0;bottom=0;right=0;fontStyle=1;overflow=hidden;" vertex="1" parent="hUfFqboqBr61ed0U_pwo-290">
          <mxGeometry width="30" height="30" as="geometry" />
        </mxCell>
        <mxCell id="hUfFqboqBr61ed0U_pwo-292" value="id" style="shape=partialRectangle;connectable=0;fillColor=none;top=0;left=0;bottom=0;right=0;align=left;spacingLeft=6;fontStyle=5;overflow=hidden;" vertex="1" parent="hUfFqboqBr61ed0U_pwo-290">
          <mxGeometry x="30" width="150" height="30" as="geometry" />
        </mxCell>
        <mxCell id="hUfFqboqBr61ed0U_pwo-305" value="" style="shape=partialRectangle;collapsible=0;dropTarget=0;pointerEvents=0;fillColor=none;top=0;left=0;bottom=0;right=0;points=[[0,0.5],[1,0.5]];portConstraint=eastwest;" vertex="1" parent="hUfFqboqBr61ed0U_pwo-289">
          <mxGeometry y="60" width="180" height="30" as="geometry" />
        </mxCell>
        <mxCell id="hUfFqboqBr61ed0U_pwo-306" value="FK1" style="shape=partialRectangle;connectable=0;fillColor=none;top=0;left=0;bottom=0;right=0;fontStyle=0;overflow=hidden;" vertex="1" parent="hUfFqboqBr61ed0U_pwo-305">
          <mxGeometry width="30" height="30" as="geometry" />
        </mxCell>
        <mxCell id="hUfFqboqBr61ed0U_pwo-307" value="id_user" style="shape=partialRectangle;connectable=0;fillColor=none;top=0;left=0;bottom=0;right=0;align=left;spacingLeft=6;fontStyle=0;overflow=hidden;" vertex="1" parent="hUfFqboqBr61ed0U_pwo-305">
          <mxGeometry x="30" width="150" height="30" as="geometry" />
        </mxCell>
        <mxCell id="hUfFqboqBr61ed0U_pwo-302" value="" style="shape=partialRectangle;collapsible=0;dropTarget=0;pointerEvents=0;fillColor=none;top=0;left=0;bottom=0;right=0;points=[[0,0.5],[1,0.5]];portConstraint=eastwest;" vertex="1" parent="hUfFqboqBr61ed0U_pwo-289">
          <mxGeometry y="90" width="180" height="30" as="geometry" />
        </mxCell>
        <mxCell id="hUfFqboqBr61ed0U_pwo-303" value="FK2" style="shape=partialRectangle;connectable=0;fillColor=none;top=0;left=0;bottom=0;right=0;fontStyle=0;overflow=hidden;" vertex="1" parent="hUfFqboqBr61ed0U_pwo-302">
          <mxGeometry width="30" height="30" as="geometry" />
        </mxCell>
        <mxCell id="hUfFqboqBr61ed0U_pwo-304" value="id_jenis" style="shape=partialRectangle;connectable=0;fillColor=none;top=0;left=0;bottom=0;right=0;align=left;spacingLeft=6;fontStyle=0;overflow=hidden;" vertex="1" parent="hUfFqboqBr61ed0U_pwo-302">
          <mxGeometry x="30" width="150" height="30" as="geometry" />
        </mxCell>
        <mxCell id="hUfFqboqBr61ed0U_pwo-293" value="" style="shape=partialRectangle;collapsible=0;dropTarget=0;pointerEvents=0;fillColor=none;top=0;left=0;bottom=0;right=0;points=[[0,0.5],[1,0.5]];portConstraint=eastwest;" vertex="1" parent="hUfFqboqBr61ed0U_pwo-289">
          <mxGeometry y="120" width="180" height="30" as="geometry" />
        </mxCell>
        <mxCell id="hUfFqboqBr61ed0U_pwo-294" value="" style="shape=partialRectangle;connectable=0;fillColor=none;top=0;left=0;bottom=0;right=0;editable=1;overflow=hidden;" vertex="1" parent="hUfFqboqBr61ed0U_pwo-293">
          <mxGeometry width="30" height="30" as="geometry" />
        </mxCell>
        <mxCell id="hUfFqboqBr61ed0U_pwo-295" value="jenis" style="shape=partialRectangle;connectable=0;fillColor=none;top=0;left=0;bottom=0;right=0;align=left;spacingLeft=6;overflow=hidden;" vertex="1" parent="hUfFqboqBr61ed0U_pwo-293">
          <mxGeometry x="30" width="150" height="30" as="geometry" />
        </mxCell>
        <mxCell id="hUfFqboqBr61ed0U_pwo-296" value="" style="shape=partialRectangle;collapsible=0;dropTarget=0;pointerEvents=0;fillColor=none;top=0;left=0;bottom=0;right=0;points=[[0,0.5],[1,0.5]];portConstraint=eastwest;" vertex="1" parent="hUfFqboqBr61ed0U_pwo-289">
          <mxGeometry y="150" width="180" height="30" as="geometry" />
        </mxCell>
        <mxCell id="hUfFqboqBr61ed0U_pwo-297" value="" style="shape=partialRectangle;connectable=0;fillColor=none;top=0;left=0;bottom=0;right=0;editable=1;overflow=hidden;" vertex="1" parent="hUfFqboqBr61ed0U_pwo-296">
          <mxGeometry width="30" height="30" as="geometry" />
        </mxCell>
        <mxCell id="hUfFqboqBr61ed0U_pwo-298" value="isi" style="shape=partialRectangle;connectable=0;fillColor=none;top=0;left=0;bottom=0;right=0;align=left;spacingLeft=6;overflow=hidden;" vertex="1" parent="hUfFqboqBr61ed0U_pwo-296">
          <mxGeometry x="30" width="150" height="30" as="geometry" />
        </mxCell>
        <mxCell id="hUfFqboqBr61ed0U_pwo-308" value="" style="shape=partialRectangle;collapsible=0;dropTarget=0;pointerEvents=0;fillColor=none;top=0;left=0;bottom=0;right=0;points=[[0,0.5],[1,0.5]];portConstraint=eastwest;" vertex="1" parent="hUfFqboqBr61ed0U_pwo-289">
          <mxGeometry y="180" width="180" height="30" as="geometry" />
        </mxCell>
        <mxCell id="hUfFqboqBr61ed0U_pwo-309" value="" style="shape=partialRectangle;connectable=0;fillColor=none;top=0;left=0;bottom=0;right=0;editable=1;overflow=hidden;" vertex="1" parent="hUfFqboqBr61ed0U_pwo-308">
          <mxGeometry width="30" height="30" as="geometry" />
        </mxCell>
        <mxCell id="hUfFqboqBr61ed0U_pwo-310" value="tanggal_dibuat" style="shape=partialRectangle;connectable=0;fillColor=none;top=0;left=0;bottom=0;right=0;align=left;spacingLeft=6;overflow=hidden;" vertex="1" parent="hUfFqboqBr61ed0U_pwo-308">
          <mxGeometry x="30" width="150" height="30" as="geometry" />
        </mxCell>
        <mxCell id="hUfFqboqBr61ed0U_pwo-299" value="" style="shape=partialRectangle;collapsible=0;dropTarget=0;pointerEvents=0;fillColor=none;top=0;left=0;bottom=0;right=0;points=[[0,0.5],[1,0.5]];portConstraint=eastwest;" vertex="1" parent="hUfFqboqBr61ed0U_pwo-289">
          <mxGeometry y="210" width="180" height="30" as="geometry" />
        </mxCell>
        <mxCell id="hUfFqboqBr61ed0U_pwo-300" value="" style="shape=partialRectangle;connectable=0;fillColor=none;top=0;left=0;bottom=0;right=0;editable=1;overflow=hidden;" vertex="1" parent="hUfFqboqBr61ed0U_pwo-299">
          <mxGeometry width="30" height="30" as="geometry" />
        </mxCell>
        <mxCell id="hUfFqboqBr61ed0U_pwo-301" value="" style="shape=partialRectangle;connectable=0;fillColor=none;top=0;left=0;bottom=0;right=0;align=left;spacingLeft=6;overflow=hidden;" vertex="1" parent="hUfFqboqBr61ed0U_pwo-299">
          <mxGeometry x="30" width="150" height="30" as="geometry" />
        </mxCell>
        <mxCell id="hUfFqboqBr61ed0U_pwo-224" value="pertanyaan" style="shape=table;startSize=30;container=1;collapsible=1;childLayout=tableLayout;fixedRows=1;rowLines=0;fontStyle=1;align=center;resizeLast=1;" vertex="1" parent="1">
          <mxGeometry x="115" y="360" width="180" height="280" as="geometry" />
        </mxCell>
        <mxCell id="hUfFqboqBr61ed0U_pwo-225" value="" style="shape=partialRectangle;collapsible=0;dropTarget=0;pointerEvents=0;fillColor=none;top=0;left=0;bottom=1;right=0;points=[[0,0.5],[1,0.5]];portConstraint=eastwest;" vertex="1" parent="hUfFqboqBr61ed0U_pwo-224">
          <mxGeometry y="30" width="180" height="30" as="geometry" />
        </mxCell>
        <mxCell id="hUfFqboqBr61ed0U_pwo-226" value="PK" style="shape=partialRectangle;connectable=0;fillColor=none;top=0;left=0;bottom=0;right=0;fontStyle=1;overflow=hidden;" vertex="1" parent="hUfFqboqBr61ed0U_pwo-225">
          <mxGeometry width="30" height="30" as="geometry" />
        </mxCell>
        <mxCell id="hUfFqboqBr61ed0U_pwo-227" value="id" style="shape=partialRectangle;connectable=0;fillColor=none;top=0;left=0;bottom=0;right=0;align=left;spacingLeft=6;fontStyle=5;overflow=hidden;" vertex="1" parent="hUfFqboqBr61ed0U_pwo-225">
          <mxGeometry x="30" width="150" height="30" as="geometry" />
        </mxCell>
        <mxCell id="hUfFqboqBr61ed0U_pwo-237" value="" style="shape=partialRectangle;collapsible=0;dropTarget=0;pointerEvents=0;fillColor=none;top=0;left=0;bottom=0;right=0;points=[[0,0.5],[1,0.5]];portConstraint=eastwest;" vertex="1" parent="hUfFqboqBr61ed0U_pwo-224">
          <mxGeometry y="60" width="180" height="30" as="geometry" />
        </mxCell>
        <mxCell id="hUfFqboqBr61ed0U_pwo-238" value="FK1" style="shape=partialRectangle;connectable=0;fillColor=none;top=0;left=0;bottom=0;right=0;fontStyle=0;overflow=hidden;" vertex="1" parent="hUfFqboqBr61ed0U_pwo-237">
          <mxGeometry width="30" height="30" as="geometry" />
        </mxCell>
        <mxCell id="hUfFqboqBr61ed0U_pwo-239" value="id_user" style="shape=partialRectangle;connectable=0;fillColor=none;top=0;left=0;bottom=0;right=0;align=left;spacingLeft=6;fontStyle=0;overflow=hidden;" vertex="1" parent="hUfFqboqBr61ed0U_pwo-237">
          <mxGeometry x="30" width="150" height="30" as="geometry" />
        </mxCell>
        <mxCell id="hUfFqboqBr61ed0U_pwo-228" value="" style="shape=partialRectangle;collapsible=0;dropTarget=0;pointerEvents=0;fillColor=none;top=0;left=0;bottom=0;right=0;points=[[0,0.5],[1,0.5]];portConstraint=eastwest;" vertex="1" parent="hUfFqboqBr61ed0U_pwo-224">
          <mxGeometry y="90" width="180" height="30" as="geometry" />
        </mxCell>
        <mxCell id="hUfFqboqBr61ed0U_pwo-229" value="" style="shape=partialRectangle;connectable=0;fillColor=none;top=0;left=0;bottom=0;right=0;editable=1;overflow=hidden;" vertex="1" parent="hUfFqboqBr61ed0U_pwo-228">
          <mxGeometry width="30" height="30" as="geometry" />
        </mxCell>
        <mxCell id="hUfFqboqBr61ed0U_pwo-230" value="judul" style="shape=partialRectangle;connectable=0;fillColor=none;top=0;left=0;bottom=0;right=0;align=left;spacingLeft=6;overflow=hidden;" vertex="1" parent="hUfFqboqBr61ed0U_pwo-228">
          <mxGeometry x="30" width="150" height="30" as="geometry" />
        </mxCell>
        <mxCell id="hUfFqboqBr61ed0U_pwo-231" value="" style="shape=partialRectangle;collapsible=0;dropTarget=0;pointerEvents=0;fillColor=none;top=0;left=0;bottom=0;right=0;points=[[0,0.5],[1,0.5]];portConstraint=eastwest;" vertex="1" parent="hUfFqboqBr61ed0U_pwo-224">
          <mxGeometry y="120" width="180" height="30" as="geometry" />
        </mxCell>
        <mxCell id="hUfFqboqBr61ed0U_pwo-232" value="" style="shape=partialRectangle;connectable=0;fillColor=none;top=0;left=0;bottom=0;right=0;editable=1;overflow=hidden;" vertex="1" parent="hUfFqboqBr61ed0U_pwo-231">
          <mxGeometry width="30" height="30" as="geometry" />
        </mxCell>
        <mxCell id="hUfFqboqBr61ed0U_pwo-233" value="isi" style="shape=partialRectangle;connectable=0;fillColor=none;top=0;left=0;bottom=0;right=0;align=left;spacingLeft=6;overflow=hidden;" vertex="1" parent="hUfFqboqBr61ed0U_pwo-231">
          <mxGeometry x="30" width="150" height="30" as="geometry" />
        </mxCell>
        <mxCell id="hUfFqboqBr61ed0U_pwo-240" value="" style="shape=partialRectangle;collapsible=0;dropTarget=0;pointerEvents=0;fillColor=none;top=0;left=0;bottom=0;right=0;points=[[0,0.5],[1,0.5]];portConstraint=eastwest;" vertex="1" parent="hUfFqboqBr61ed0U_pwo-224">
          <mxGeometry y="150" width="180" height="30" as="geometry" />
        </mxCell>
        <mxCell id="hUfFqboqBr61ed0U_pwo-241" value="" style="shape=partialRectangle;connectable=0;fillColor=none;top=0;left=0;bottom=0;right=0;editable=1;overflow=hidden;" vertex="1" parent="hUfFqboqBr61ed0U_pwo-240">
          <mxGeometry width="30" height="30" as="geometry" />
        </mxCell>
        <mxCell id="hUfFqboqBr61ed0U_pwo-242" value="tanggal_dibuat" style="shape=partialRectangle;connectable=0;fillColor=none;top=0;left=0;bottom=0;right=0;align=left;spacingLeft=6;overflow=hidden;" vertex="1" parent="hUfFqboqBr61ed0U_pwo-240">
          <mxGeometry x="30" width="150" height="30" as="geometry" />
        </mxCell>
        <mxCell id="hUfFqboqBr61ed0U_pwo-247" value="" style="shape=partialRectangle;collapsible=0;dropTarget=0;pointerEvents=0;fillColor=none;top=0;left=0;bottom=0;right=0;points=[[0,0.5],[1,0.5]];portConstraint=eastwest;" vertex="1" parent="hUfFqboqBr61ed0U_pwo-224">
          <mxGeometry y="180" width="180" height="30" as="geometry" />
        </mxCell>
        <mxCell id="hUfFqboqBr61ed0U_pwo-248" value="" style="shape=partialRectangle;connectable=0;fillColor=none;top=0;left=0;bottom=0;right=0;editable=1;overflow=hidden;" vertex="1" parent="hUfFqboqBr61ed0U_pwo-247">
          <mxGeometry width="30" height="30" as="geometry" />
        </mxCell>
        <mxCell id="hUfFqboqBr61ed0U_pwo-249" value="tanggal_diperbarui" style="shape=partialRectangle;connectable=0;fillColor=none;top=0;left=0;bottom=0;right=0;align=left;spacingLeft=6;overflow=hidden;" vertex="1" parent="hUfFqboqBr61ed0U_pwo-247">
          <mxGeometry x="30" width="150" height="30" as="geometry" />
        </mxCell>
        <mxCell id="hUfFqboqBr61ed0U_pwo-250" value="" style="shape=partialRectangle;collapsible=0;dropTarget=0;pointerEvents=0;fillColor=none;top=0;left=0;bottom=0;right=0;points=[[0,0.5],[1,0.5]];portConstraint=eastwest;" vertex="1" parent="hUfFqboqBr61ed0U_pwo-224">
          <mxGeometry y="210" width="180" height="30" as="geometry" />
        </mxCell>
        <mxCell id="hUfFqboqBr61ed0U_pwo-251" value="" style="shape=partialRectangle;connectable=0;fillColor=none;top=0;left=0;bottom=0;right=0;editable=1;overflow=hidden;" vertex="1" parent="hUfFqboqBr61ed0U_pwo-250">
          <mxGeometry width="30" height="30" as="geometry" />
        </mxCell>
        <mxCell id="hUfFqboqBr61ed0U_pwo-252" value="like" style="shape=partialRectangle;connectable=0;fillColor=none;top=0;left=0;bottom=0;right=0;align=left;spacingLeft=6;overflow=hidden;" vertex="1" parent="hUfFqboqBr61ed0U_pwo-250">
          <mxGeometry x="30" width="150" height="30" as="geometry" />
        </mxCell>
        <mxCell id="hUfFqboqBr61ed0U_pwo-234" value="" style="shape=partialRectangle;collapsible=0;dropTarget=0;pointerEvents=0;fillColor=none;top=0;left=0;bottom=0;right=0;points=[[0,0.5],[1,0.5]];portConstraint=eastwest;" vertex="1" parent="hUfFqboqBr61ed0U_pwo-224">
          <mxGeometry y="240" width="180" height="30" as="geometry" />
        </mxCell>
        <mxCell id="hUfFqboqBr61ed0U_pwo-235" value="" style="shape=partialRectangle;connectable=0;fillColor=none;top=0;left=0;bottom=0;right=0;editable=1;overflow=hidden;" vertex="1" parent="hUfFqboqBr61ed0U_pwo-234">
          <mxGeometry width="30" height="30" as="geometry" />
        </mxCell>
        <mxCell id="hUfFqboqBr61ed0U_pwo-236" value="dislike" style="shape=partialRectangle;connectable=0;fillColor=none;top=0;left=0;bottom=0;right=0;align=left;spacingLeft=6;overflow=hidden;" vertex="1" parent="hUfFqboqBr61ed0U_pwo-234">
          <mxGeometry x="30" width="150" height="30" as="geometry" />
        </mxCell>
        <mxCell id="hUfFqboqBr61ed0U_pwo-335" value="" style="edgeStyle=orthogonalEdgeStyle;fontSize=12;html=1;endArrow=ERzeroToMany;startArrow=ERmandOne;strokeColor=#000000;exitX=0;exitY=0.5;exitDx=0;exitDy=0;entryX=1;entryY=0.5;entryDx=0;entryDy=0;" edge="1" parent="1" source="hUfFqboqBr61ed0U_pwo-174" target="hUfFqboqBr61ed0U_pwo-305">
          <mxGeometry width="100" height="100" relative="1" as="geometry">
            <mxPoint x="-140" y="750" as="sourcePoint" />
            <mxPoint x="620" y="600" as="targetPoint" />
            <Array as="points">
              <mxPoint x="-170" y="305" />
              <mxPoint x="-170" y="660" />
              <mxPoint x="650" y="660" />
              <mxPoint x="650" y="365" />
            </Array>
          </mxGeometry>
        </mxCell>
      </root>
    </mxGraphModel>
  </diagram>
</mxfile>
